# xmcd
#
# Track frame offsets: 
#        150
#        54094
#        103328
#        130952
#
# Disc length: 2680 seconds
#
# Revision: 0
# Processed by: cddbd v1.5.1PL0 Copyright (c) Steve Scherf et al.
# Submitted via: ExactAudioCopy v0.95a5
#
DISCID=300a7604
DTITLE=Julius Katchen (Piano) and Mantovani Orchestra - Gershwin - Rha
DTITLE=psody in Blue,etc.
DYEAR=1955
DGENRE=Jazz
TTITLE0=Piano Concerto:¢ñ Allegro
TTITLE1=Piano Concerto:¢ò Andante con moto
TTITLE2=Piano Concerto:¢ó Allegro agitato
TTITLE3=Rhapsody in Blue
EXTD=
EXTT0=
EXTT1=
EXTT2=
EXTT3=
PLAYORDER=
